<?xml version="1.0" encoding="utf-8"?>
<svg xmlns="http://www.w3.org/2000/svg" viewBox="0 0 368 261" width="512" height="363" preserveAspectRatio="xMidYMid meet" role="img" aria-label="Signature logo preloader">
  <defs>
    <linearGradient id="fillSweep" x1="0" x2="1" y1="0" y2="0">
      <stop offset="0%" stop-color="#0f3569"/>
      <stop offset="100%" stop-color="#0f3569"/>
    </linearGradient>
    <clipPath id="logoClip">
      <g><path d="M118.36 258.69 c-0.54 -0.15 -1.63 -0.94 -2.42 -1.73 -4.63 -4.75 -6.20 -14.07 -6.20 -36.80 0.03 -11.50 0.33 -17.79 1.51 -29.96 2.66 -27.84 3.90 -38.89 5.30 -47 0.76 -4.48 0.73 -5.27 -0.09 -6.02 -1.48 -1.33 -1.15 -1.27 -12.62 -2.21 -4.12 -0.33 -8.26 -0.88 -17.46 -2.27 -2.81 -0.45 -8.50 -1.18 -12.68 -1.66 -4.15 -0.48 -10.41 -1.21 -13.92 -1.63 -11.74 -1.42 -19.73 -2.06 -23 -1.85 -5.27 0.33 -9.81 1.39 -11.98 2.75 -1.39 0.85 -2.15 1.91 -3.42 4.72 -2.09 4.57 -4.54 6.05 -7.63 4.60 -2.72 -1.30 -6.45 -7.08 -7.51 -11.62 -0.67 -2.81 -0.61 -7.54 0.09 -10.35 1.21 -4.69 4.06 -8.90 7.20 -10.62 2.06 -1.09 5.66 -1.54 10.53 -1.33 10.02 0.48 20.25 3.51 39.04 11.50 9.90 4.21 16.10 5.93 25.27 6.99 7.29 0.85 11.74 1.09 20.70 1.09 8.14 0 8.87 -0.06 9.74 -0.57 1.18 -0.73 1.76 -2.18 2.39 -5.99 1.51 -9.11 4.57 -14.71 9.56 -17.67 3.36 -2 6.02 -2.78 8.90 -2.63 4.69 0.27 7.72 2.94 9.74 8.66 0.39 1.12 0.88 2.36 1.06 2.72 0.51 0.97 1.76 1.57 3.30 1.57 1.33 0 2.09 -0.61 4.45 -3.60 0.70 -0.85 1.76 -1.63 3.42 -2.45 3.96 -2 4.93 -2.27 8.44 -2.27 3 0 3.27 0.06 5.08 1 2.63 1.36 4.15 2.84 5.18 5.02 1.57 3.30 1.63 4.15 1.82 22.97 0.18 16.89 0.21 17.52 0.76 17.95 0.79 0.54 0.97 0.54 1.66 -0.15 0.82 -0.82 1.06 -2.18 3.21 -19.22 1.09 -8.50 2.33 -17.64 2.75 -20.31 0.42 -2.66 1.30 -8.32 1.97 -12.56 2.48 -16.07 4.87 -25.69 9.62 -38.71 1.91 -5.21 2.88 -7.41 7.14 -16.37 6.87 -14.44 15.10 -25.21 22.70 -29.81 3.90 -2.33 10.89 -4.30 16.43 -4.57 4.39 -0.21 6.39 0.24 9.14 2 3.18 2.03 6.32 6.36 7.11 9.74 1.12 4.93 0.88 17.16 -0.45 23.36 -1.57 7.17 -7.11 21 -13.16 32.74 -1.91 3.69 -3.75 7.44 -4.09 8.32 -0.36 0.91 -1.42 2.66 -2.39 3.90 -0.97 1.24 -3.78 5.27 -6.23 8.93 -2.48 3.66 -5.36 7.57 -6.39 8.66 -1.03 1.12 -2.27 2.75 -2.69 3.63 -1.48 2.94 -5.27 7.81 -10.86 14.04 -4.93 5.51 -7.17 8.75 -10.20 14.92 -1.54 3.15 -1.48 7.66 0.09 8.66 0.76 0.45 1.82 -0.70 2.75 -3.06 0.94 -2.30 4.03 -6.87 8.20 -12.07 5.84 -7.29 8.17 -8.90 12.83 -8.90 3.09 0 4.51 0.42 5.84 1.79 2.33 2.33 2.21 6.96 -0.30 13.29 -0.97 2.39 -2.36 4.45 -7.38 10.80 -2.91 3.66 -4.81 6.36 -5.27 7.41 -0.91 2.24 -0.91 5.27 0.06 10.20 1.24 6.51 1.97 11.80 2.27 17.34 0.73 12.50 1.18 15.16 2.57 15.80 2.78 1.27 5.81 -2.91 10.38 -14.28 1.18 -2.91 2.84 -6.93 3.69 -8.93 0.88 -2 2.36 -5.96 3.33 -8.78 4.21 -12.41 12.80 -29.20 17.25 -33.77 2 -2.03 4.60 -3.39 8.81 -4.63 4.03 -1.15 7.75 -1.48 14.44 -1.30 9.44 0.24 17.61 1.63 34.29 5.81 11.62 2.91 13.29 3.15 16.80 2.45 4.42 -0.85 5.51 -1.51 9.81 -5.93 3.06 -3.15 4.03 -3.96 5.08 -4.27 1.18 -0.33 1.36 -0.30 2.12 0.24 2.03 1.48 5.18 6.81 6.48 10.99 0.61 1.97 0.70 2.88 0.67 6.81 0 4.24 -0.06 4.69 -0.85 6.81 -0.48 1.24 -1.18 2.72 -1.54 3.33 -1 1.57 -3.90 4.21 -5.36 4.84 -4.21 1.82 -14.98 1.54 -23.45 -0.61 -6.05 -1.54 -15.22 -5.48 -23.82 -10.26 -7.23 -3.99 -11.11 -5.66 -15.43 -6.57 -1.15 -0.24 -3.36 -0.97 -4.84 -1.60 -3.69 -1.57 -4.78 -1.85 -7.47 -1.85 -4.09 0 -10.93 2.24 -13.26 4.36 -1.54 1.39 -7.72 15.56 -11.17 25.63 -1.18 3.39 -3.36 9.50 -4.84 13.59 -1.48 4.09 -3.06 8.56 -3.54 9.99 -2.33 7.17 -7.20 14.41 -12.29 18.16 -3.03 2.24 -4.75 2.84 -7.81 2.66 -2.60 -0.15 -4.60 -0.94 -7.51 -2.91 -6.51 -4.48 -7.93 -8.53 -8.84 -25.48 -0.27 -4.87 -0.61 -6.48 -1.42 -6.78 -0.21 -0.09 -0.91 0.06 -1.57 0.30 -1.51 0.61 -2.30 1.85 -4.63 7.35 -2.88 6.78 -4.09 8.38 -6.99 9.14 -1.18 0.33 -1.57 0.30 -2.78 -0.15 -3.48 -1.33 -6.69 -6.48 -7.75 -12.44 -0.15 -0.97 -0.51 -5.21 -0.79 -9.38 -0.67 -10.77 -0.97 -11.95 -3.27 -11.95 -2.57 0 -6.69 4.33 -12.59 13.16 -3.39 5.11 -13.35 15.65 -16.22 17.16 -2.42 1.30 -4.69 1.76 -8.63 1.76 l-3.54 0 -0.82 0.97 c-1.18 1.39 -2.78 4.72 -3.48 7.26 -0.97 3.42 -3.81 15.98 -4.66 20.52 -0.42 2.24 -1.60 9.05 -2.60 15.13 -1 6.08 -2.09 12.17 -2.42 13.53 -1.15 4.90 -3.27 8.17 -5.72 8.87 -1.27 0.33 -1.36 0.33 -2.72 -0.06z m28.08 -78.05 c5.21 -3.48 8.47 -7.93 10.44 -14.19 0.45 -1.42 1.91 -4.84 3.21 -7.60 4.66 -9.77 7.84 -21.46 8.84 -32.47 0.67 -7.44 -0.64 -11.26 -3.84 -11.17 -0.54 0.03 -1.33 0.24 -1.73 0.51 -0.88 0.57 -5.45 8.84 -6.20 11.17 -0.27 0.88 -1.76 4.90 -3.30 8.99 -1.54 4.09 -3.30 9.11 -3.90 11.20 -0.61 2.09 -1.97 6.57 -3.06 9.96 -1.06 3.39 -2.21 7.32 -2.54 8.78 -0.91 4.12 -2.45 12.74 -2.51 13.98 -0.09 2.45 1.69 2.78 4.60 0.85z m-8.78 -24.69 c0.42 -0.39 0.91 -1.60 1.51 -4.03 1 -3.93 1.82 -6.32 4.66 -13.92 2.48 -6.69 5.05 -15.10 5.05 -16.64 0 -1.76 -1.12 -2.54 -3.27 -2.33 -2.54 0.27 -4.72 1.85 -6.08 4.36 -0.39 0.76 -1.88 7.11 -2.60 11.17 -0.76 4.27 -1.97 15.46 -1.97 18.13 0 3.45 1 4.66 2.69 3.27z m74.36 -36.16 c1.03 -1.12 10.68 -13.89 12.95 -17.13 1.15 -1.60 2.75 -4.36 3.57 -6.11 2.24 -4.69 2.36 -4.93 3.93 -7.17 4.03 -5.75 12.74 -22.30 14.47 -27.51 0.54 -1.66 1.91 -5.39 3.03 -8.29 2.45 -6.29 3.06 -8.23 3.87 -12.26 1.06 -5.11 1.33 -8.53 1.21 -14.25 -0.09 -4.87 -0.18 -5.54 -0.79 -6.69 -0.36 -0.70 -0.97 -1.48 -1.33 -1.73 -0.79 -0.57 -2.33 -0.64 -3.39 -0.15 -1.76 0.82 -12.38 13.83 -15.37 18.88 -1.88 3.18 -3.78 7.20 -4.93 10.47 -0.61 1.73 -1.39 3.69 -1.79 4.36 -1.27 2.18 -6.29 14.34 -8.81 21.34 -0.88 2.39 -3.81 12.74 -4.84 17.01 -1.39 5.78 -4.09 24.21 -4.09 27.96 0 2.57 0.76 3 2.30 1.27z m-69.91 -4.90 c2.18 -2.18 0.82 -5.60 -2.24 -5.63 -1.06 0 -1.48 0.18 -2.21 0.88 -0.73 0.76 -0.88 1.15 -0.88 2.36 0.03 3.18 3.15 4.57 5.33 2.39z"/></g>
    </clipPath>
    <mask id="sweepMask" maskUnits="userSpaceOnUse">
      <rect x="-380" y="0" width="380" height="261" fill="white">
        <animate attributeName="x" from="-380" to="0" dur="2.65s" begin="0.35s" fill="freeze" calcMode="spline" keySplines="0.42 0 0.2 1"/>
      </rect>
    </mask>
    <style><![CDATA[
      .sig-path{fill:transparent;stroke:#fff;stroke-width:3.2;stroke-linecap:round;stroke-linejoin:round;stroke-dasharray:1600;stroke-dashoffset:1600;animation:draw 3s cubic-bezier(.42,0,.2,1) forwards;}
      .fill-logo{fill:#0f3569;opacity:0;animation:showFill .35s ease forwards .35s;}
      @keyframes draw{to{stroke-dashoffset:0;}}
      @keyframes showFill{to{opacity:1;}}
    ]]></style>
  </defs>
  <g><path class="sig-path" d="M118.36 258.69 c-0.54 -0.15 -1.63 -0.94 -2.42 -1.73 -4.63 -4.75 -6.20 -14.07 -6.20 -36.80 0.03 -11.50 0.33 -17.79 1.51 -29.96 2.66 -27.84 3.90 -38.89 5.30 -47 0.76 -4.48 0.73 -5.27 -0.09 -6.02 -1.48 -1.33 -1.15 -1.27 -12.62 -2.21 -4.12 -0.33 -8.26 -0.88 -17.46 -2.27 -2.81 -0.45 -8.50 -1.18 -12.68 -1.66 -4.15 -0.48 -10.41 -1.21 -13.92 -1.63 -11.74 -1.42 -19.73 -2.06 -23 -1.85 -5.27 0.33 -9.81 1.39 -11.98 2.75 -1.39 0.85 -2.15 1.91 -3.42 4.72 -2.09 4.57 -4.54 6.05 -7.63 4.60 -2.72 -1.30 -6.45 -7.08 -7.51 -11.62 -0.67 -2.81 -0.61 -7.54 0.09 -10.35 1.21 -4.69 4.06 -8.90 7.20 -10.62 2.06 -1.09 5.66 -1.54 10.53 -1.33 10.02 0.48 20.25 3.51 39.04 11.50 9.90 4.21 16.10 5.93 25.27 6.99 7.29 0.85 11.74 1.09 20.70 1.09 8.14 0 8.87 -0.06 9.74 -0.57 1.18 -0.73 1.76 -2.18 2.39 -5.99 1.51 -9.11 4.57 -14.71 9.56 -17.67 3.36 -2 6.02 -2.78 8.90 -2.63 4.69 0.27 7.72 2.94 9.74 8.66 0.39 1.12 0.88 2.36 1.06 2.72 0.51 0.97 1.76 1.57 3.30 1.57 1.33 0 2.09 -0.61 4.45 -3.60 0.70 -0.85 1.76 -1.63 3.42 -2.45 3.96 -2 4.93 -2.27 8.44 -2.27 3 0 3.27 0.06 5.08 1 2.63 1.36 4.15 2.84 5.18 5.02 1.57 3.30 1.63 4.15 1.82 22.97 0.18 16.89 0.21 17.52 0.76 17.95 0.79 0.54 0.97 0.54 1.66 -0.15 0.82 -0.82 1.06 -2.18 3.21 -19.22 1.09 -8.50 2.33 -17.64 2.75 -20.31 0.42 -2.66 1.30 -8.32 1.97 -12.56 2.48 -16.07 4.87 -25.69 9.62 -38.71 1.91 -5.21 2.88 -7.41 7.14 -16.37 6.87 -14.44 15.10 -25.21 22.70 -29.81 3.90 -2.33 10.89 -4.30 16.43 -4.57 4.39 -0.21 6.39 0.24 9.14 2 3.18 2.03 6.32 6.36 7.11 9.74 1.12 4.93 0.88 17.16 -0.45 23.36 -1.57 7.17 -7.11 21 -13.16 32.74 -1.91 3.69 -3.75 7.44 -4.09 8.32 -0.36 0.91 -1.42 2.66 -2.39 3.90 -0.97 1.24 -3.78 5.27 -6.23 8.93 -2.48 3.66 -5.36 7.57 -6.39 8.66 -1.03 1.12 -2.27 2.75 -2.69 3.63 -1.48 2.94 -5.27 7.81 -10.86 14.04 -4.93 5.51 -7.17 8.75 -10.20 14.92 -1.54 3.15 -1.48 7.66 0.09 8.66 0.76 0.45 1.82 -0.70 2.75 -3.06 0.94 -2.30 4.03 -6.87 8.20 -12.07 5.84 -7.29 8.17 -8.90 12.83 -8.90 3.09 0 4.51 0.42 5.84 1.79 2.33 2.33 2.21 6.96 -0.30 13.29 -0.97 2.39 -2.36 4.45 -7.38 10.80 -2.91 3.66 -4.81 6.36 -5.27 7.41 -0.91 2.24 -0.91 5.27 0.06 10.20 1.24 6.51 1.97 11.80 2.27 17.34 0.73 12.50 1.18 15.16 2.57 15.80 2.78 1.27 5.81 -2.91 10.38 -14.28 1.18 -2.91 2.84 -6.93 3.69 -8.93 0.88 -2 2.36 -5.96 3.33 -8.78 4.21 -12.41 12.80 -29.20 17.25 -33.77 2 -2.03 4.60 -3.39 8.81 -4.63 4.03 -1.15 7.75 -1.48 14.44 -1.30 9.44 0.24 17.61 1.63 34.29 5.81 11.62 2.91 13.29 3.15 16.80 2.45 4.42 -0.85 5.51 -1.51 9.81 -5.93 3.06 -3.15 4.03 -3.96 5.08 -4.27 1.18 -0.33 1.36 -0.30 2.12 0.24 2.03 1.48 5.18 6.81 6.48 10.99 0.61 1.97 0.70 2.88 0.67 6.81 0 4.24 -0.06 4.69 -0.85 6.81 -0.48 1.24 -1.18 2.72 -1.54 3.33 -1 1.57 -3.90 4.21 -5.36 4.84 -4.21 1.82 -14.98 1.54 -23.45 -0.61 -6.05 -1.54 -15.22 -5.48 -23.82 -10.26 -7.23 -3.99 -11.11 -5.66 -15.43 -6.57 -1.15 -0.24 -3.36 -0.97 -4.84 -1.60 -3.69 -1.57 -4.78 -1.85 -7.47 -1.85 -4.09 0 -10.93 2.24 -13.26 4.36 -1.54 1.39 -7.72 15.56 -11.17 25.63 -1.18 3.39 -3.36 9.50 -4.84 13.59 -1.48 4.09 -3.06 8.56 -3.54 9.99 -2.33 7.17 -7.20 14.41 -12.29 18.16 -3.03 2.24 -4.75 2.84 -7.81 2.66 -2.60 -0.15 -4.60 -0.94 -7.51 -2.91 -6.51 -4.48 -7.93 -8.53 -8.84 -25.48 -0.27 -4.87 -0.61 -6.48 -1.42 -6.78 -0.21 -0.09 -0.91 0.06 -1.57 0.30 -1.51 0.61 -2.30 1.85 -4.63 7.35 -2.88 6.78 -4.09 8.38 -6.99 9.14 -1.18 0.33 -1.57 0.30 -2.78 -0.15 -3.48 -1.33 -6.69 -6.48 -7.75 -12.44 -0.15 -0.97 -0.51 -5.21 -0.79 -9.38 -0.67 -10.77 -0.97 -11.95 -3.27 -11.95 -2.57 0 -6.69 4.33 -12.59 13.16 -3.39 5.11 -13.35 15.65 -16.22 17.16 -2.42 1.30 -4.69 1.76 -8.63 1.76 l-3.54 0 -0.82 0.97 c-1.18 1.39 -2.78 4.72 -3.48 7.26 -0.97 3.42 -3.81 15.98 -4.66 20.52 -0.42 2.24 -1.60 9.05 -2.60 15.13 -1 6.08 -2.09 12.17 -2.42 13.53 -1.15 4.90 -3.27 8.17 -5.72 8.87 -1.27 0.33 -1.36 0.33 -2.72 -0.06z m28.08 -78.05 c5.21 -3.48 8.47 -7.93 10.44 -14.19 0.45 -1.42 1.91 -4.84 3.21 -7.60 4.66 -9.77 7.84 -21.46 8.84 -32.47 0.67 -7.44 -0.64 -11.26 -3.84 -11.17 -0.54 0.03 -1.33 0.24 -1.73 0.51 -0.88 0.57 -5.45 8.84 -6.20 11.17 -0.27 0.88 -1.76 4.90 -3.30 8.99 -1.54 4.09 -3.30 9.11 -3.90 11.20 -0.61 2.09 -1.97 6.57 -3.06 9.96 -1.06 3.39 -2.21 7.32 -2.54 8.78 -0.91 4.12 -2.45 12.74 -2.51 13.98 -0.09 2.45 1.69 2.78 4.60 0.85z m-8.78 -24.69 c0.42 -0.39 0.91 -1.60 1.51 -4.03 1 -3.93 1.82 -6.32 4.66 -13.92 2.48 -6.69 5.05 -15.10 5.05 -16.64 0 -1.76 -1.12 -2.54 -3.27 -2.33 -2.54 0.27 -4.72 1.85 -6.08 4.36 -0.39 0.76 -1.88 7.11 -2.60 11.17 -0.76 4.27 -1.97 15.46 -1.97 18.13 0 3.45 1 4.66 2.69 3.27z m74.36 -36.16 c1.03 -1.12 10.68 -13.89 12.95 -17.13 1.15 -1.60 2.75 -4.36 3.57 -6.11 2.24 -4.69 2.36 -4.93 3.93 -7.17 4.03 -5.75 12.74 -22.30 14.47 -27.51 0.54 -1.66 1.91 -5.39 3.03 -8.29 2.45 -6.29 3.06 -8.23 3.87 -12.26 1.06 -5.11 1.33 -8.53 1.21 -14.25 -0.09 -4.87 -0.18 -5.54 -0.79 -6.69 -0.36 -0.70 -0.97 -1.48 -1.33 -1.73 -0.79 -0.57 -2.33 -0.64 -3.39 -0.15 -1.76 0.82 -12.38 13.83 -15.37 18.88 -1.88 3.18 -3.78 7.20 -4.93 10.47 -0.61 1.73 -1.39 3.69 -1.79 4.36 -1.27 2.18 -6.29 14.34 -8.81 21.34 -0.88 2.39 -3.81 12.74 -4.84 17.01 -1.39 5.78 -4.09 24.21 -4.09 27.96 0 2.57 0.76 3 2.30 1.27z m-69.91 -4.90 c2.18 -2.18 0.82 -5.60 -2.24 -5.63 -1.06 0 -1.48 0.18 -2.21 0.88 -0.73 0.76 -0.88 1.15 -0.88 2.36 0.03 3.18 3.15 4.57 5.33 2.39z"/></g>
  <g class="fill-logo" clip-path="url(#logoClip)" mask="url(#sweepMask)"><rect x="0" y="0" width="368" height="261" fill="#0f3569"/></g>
</svg>