<svg width="1400" height="1000" viewBox="0 0 1400 1000" fill="none" xmlns="http://www.w3.org/2000/svg">
  <rect width="1400" height="1000" rx="48" fill="#F5F1E9"/>
  <rect x="76" y="76" width="1248" height="848" rx="40" fill="url(#paint0_linear)"/>
  <path d="M149 712C356 528 547 420 800 380C959 355 1090 370 1244 433" stroke="#E0A14B" stroke-width="10" stroke-linecap="round"/>
  <path d="M199 806C403 616 610 519 853 489C1033 468 1150 480 1215 512" stroke="#E0A14B" stroke-opacity="0.45" stroke-width="10" stroke-linecap="round"/>
  <circle cx="1080" cy="286" r="170" fill="#DCE9F5"/>
  <rect x="183" y="190" width="353" height="222" rx="30" fill="#FFFCF6"/>
  <rect x="222" y="226" width="170" height="16" rx="8" fill="#143F78"/>
  <rect x="222" y="271" width="270" height="11" rx="5.5" fill="#8EA7C6"/>
  <rect x="222" y="305" width="239" height="11" rx="5.5" fill="#8EA7C6"/>
  <rect x="222" y="339" width="203" height="11" rx="5.5" fill="#8EA7C6"/>
  <rect x="801" y="488" width="360" height="260" rx="34" fill="#143F78"/>
  <rect x="842" y="529" width="278" height="20" rx="10" fill="#F8E0B8"/>
  <rect x="842" y="580" width="205" height="12" rx="6" fill="#EAF1F9"/>
  <rect x="842" y="614" width="247" height="12" rx="6" fill="#EAF1F9"/>
  <rect x="842" y="648" width="178" height="12" rx="6" fill="#EAF1F9"/>
  <defs>
    <linearGradient id="paint0_linear" x1="167" y1="176" x2="1257" y2="869" gradientUnits="userSpaceOnUse">
      <stop stop-color="#FFFDF8"/>
      <stop offset="1" stop-color="#EEF4FB"/>
    </linearGradient>
  </defs>
</svg>
