<svg width="1400" height="1000" viewBox="0 0 1400 1000" fill="none" xmlns="http://www.w3.org/2000/svg">
  <rect width="1400" height="1000" rx="48" fill="#F6EFE1"/>
  <rect x="70" y="70" width="1260" height="860" rx="36" fill="url(#paint0_linear)"/>
  <circle cx="1120" cy="240" r="180" fill="#E9C98F" fill-opacity="0.55"/>
  <circle cx="290" cy="760" r="210" fill="#D7E6F6" fill-opacity="0.95"/>
  <rect x="170" y="180" width="560" height="8" rx="4" fill="#E7A64A"/>
  <rect x="170" y="228" width="420" height="8" rx="4" fill="#E7A64A" fill-opacity="0.55"/>
  <path d="M803 746C875 546 1008 426 1217 351" stroke="#143F78" stroke-width="8" stroke-linecap="round" stroke-dasharray="2 26"/>
  <rect x="817" y="418" width="330" height="236" rx="28" fill="#FFFCF6"/>
  <path d="M928 608V459H961C986 459 998 474 998 497C998 523 982 538 958 538H942V608H928ZM942 525H957C973 525 983 516 983 497C983 481 973 472 957 472H942V525Z" fill="#143F78"/>
  <path d="M1025 608V460H1039L1085 567V460H1099V608H1086L1039 500V608H1025Z" fill="#143F78"/>
  <path d="M1127 608V460H1142V520H1210V460H1224V608H1210V533H1142V608H1127Z" fill="#143F78"/>
  <defs>
    <linearGradient id="paint0_linear" x1="165" y1="132" x2="1228" y2="883" gradientUnits="userSpaceOnUse">
      <stop stop-color="#FBF8F2"/>
      <stop offset="1" stop-color="#F1F6FC"/>
    </linearGradient>
  </defs>
</svg>
